<mxfile host="app.diagrams.net" agent="Mozilla/5.0 (Macintosh; Intel Mac OS X 10_15_7) AppleWebKit/605.1.15 (KHTML, like Gecko) Version/17.6 Safari/605.1.15" version="26.0.16">
  <diagram name="Page-1" id="fIsfwOmgyJw4GLF14wE0">
    <mxGraphModel dx="2604" dy="1007" grid="1" gridSize="10" guides="1" tooltips="1" connect="1" arrows="1" fold="1" page="1" pageScale="1" pageWidth="850" pageHeight="1100" math="0" shadow="0">
      <root>
        <mxCell id="0" />
        <mxCell id="1" parent="0" />
        <mxCell id="yNYrjOHbYUAeNA91Fylv-1" value="Windows 10 Client&lt;div&gt;Wazuh Agent&lt;/div&gt;" style="fontColor=#0066CC;verticalAlign=top;verticalLabelPosition=bottom;labelPosition=center;align=center;html=1;outlineConnect=0;fillColor=#CCCCCC;strokeColor=#6881B3;gradientColor=none;gradientDirection=north;strokeWidth=2;shape=mxgraph.networks.pc;" vertex="1" parent="1">
          <mxGeometry x="375" y="580" width="100" height="70" as="geometry" />
        </mxCell>
        <mxCell id="yNYrjOHbYUAeNA91Fylv-19" style="edgeStyle=orthogonalEdgeStyle;rounded=0;orthogonalLoop=1;jettySize=auto;html=1;shape=link;strokeColor=#B3B3B3;" edge="1" parent="1" source="yNYrjOHbYUAeNA91Fylv-2" target="yNYrjOHbYUAeNA91Fylv-8">
          <mxGeometry relative="1" as="geometry" />
        </mxCell>
        <mxCell id="yNYrjOHbYUAeNA91Fylv-2" value="Router" style="sketch=0;points=[[0.5,0,0],[1,0.5,0],[0.5,1,0],[0,0.5,0],[0.145,0.145,0],[0.8555,0.145,0],[0.855,0.8555,0],[0.145,0.855,0]];verticalLabelPosition=bottom;html=1;verticalAlign=top;aspect=fixed;align=center;pointerEvents=1;shape=mxgraph.cisco19.rect;prIcon=router;fillColor=#FAFAFA;strokeColor=#005073;" vertex="1" parent="1">
          <mxGeometry x="400" y="380" width="50" height="50" as="geometry" />
        </mxCell>
        <mxCell id="yNYrjOHbYUAeNA91Fylv-20" style="edgeStyle=orthogonalEdgeStyle;rounded=0;orthogonalLoop=1;jettySize=auto;html=1;entryX=1;entryY=0.5;entryDx=0;entryDy=0;shape=link;strokeColor=#B3B3B3;" edge="1" parent="1" source="yNYrjOHbYUAeNA91Fylv-8" target="yNYrjOHbYUAeNA91Fylv-10">
          <mxGeometry relative="1" as="geometry" />
        </mxCell>
        <mxCell id="yNYrjOHbYUAeNA91Fylv-21" value="2 Receive Events" style="edgeLabel;html=1;align=center;verticalAlign=middle;resizable=0;points=[];" vertex="1" connectable="0" parent="yNYrjOHbYUAeNA91Fylv-20">
          <mxGeometry x="0.1412" y="-3" relative="1" as="geometry">
            <mxPoint as="offset" />
          </mxGeometry>
        </mxCell>
        <mxCell id="yNYrjOHbYUAeNA91Fylv-31" style="rounded=0;orthogonalLoop=1;jettySize=auto;html=1;shape=link;strokeColor=#FFB570;" edge="1" parent="1" source="yNYrjOHbYUAeNA91Fylv-8" target="yNYrjOHbYUAeNA91Fylv-14">
          <mxGeometry relative="1" as="geometry" />
        </mxCell>
        <mxCell id="yNYrjOHbYUAeNA91Fylv-32" value="7 Send &amp;amp; Receive Email" style="edgeLabel;html=1;align=center;verticalAlign=middle;resizable=0;points=[];" vertex="1" connectable="0" parent="yNYrjOHbYUAeNA91Fylv-31">
          <mxGeometry x="0.1046" y="-1" relative="1" as="geometry">
            <mxPoint as="offset" />
          </mxGeometry>
        </mxCell>
        <mxCell id="yNYrjOHbYUAeNA91Fylv-35" style="rounded=0;orthogonalLoop=1;jettySize=auto;html=1;shape=link;strokeColor=#FF3333;" edge="1" parent="1" source="yNYrjOHbYUAeNA91Fylv-8">
          <mxGeometry relative="1" as="geometry">
            <mxPoint x="420" y="80" as="targetPoint" />
            <Array as="points">
              <mxPoint x="360" y="180" />
            </Array>
          </mxGeometry>
        </mxCell>
        <mxCell id="yNYrjOHbYUAeNA91Fylv-8" value="Internet" style="image;aspect=fixed;perimeter=ellipsePerimeter;html=1;align=center;shadow=0;dashed=0;spacingTop=3;image=img/lib/active_directory/internet_cloud.svg;" vertex="1" parent="1">
          <mxGeometry x="400" y="250" width="50" height="31.5" as="geometry" />
        </mxCell>
        <mxCell id="yNYrjOHbYUAeNA91Fylv-9" value="TheHive" style="image;aspect=fixed;perimeter=ellipsePerimeter;html=1;align=center;shadow=0;dashed=0;spacingTop=3;image=img/lib/active_directory/internet_cloud.svg;" vertex="1" parent="1">
          <mxGeometry x="630" y="250" width="50" height="31.5" as="geometry" />
        </mxCell>
        <mxCell id="yNYrjOHbYUAeNA91Fylv-22" style="rounded=0;orthogonalLoop=1;jettySize=auto;html=1;shape=link;strokeColor=#7EA6E0;" edge="1" parent="1" source="yNYrjOHbYUAeNA91Fylv-10" target="yNYrjOHbYUAeNA91Fylv-11">
          <mxGeometry relative="1" as="geometry" />
        </mxCell>
        <mxCell id="yNYrjOHbYUAeNA91Fylv-23" value="3 Send Alerts" style="edgeLabel;html=1;align=center;verticalAlign=middle;resizable=0;points=[];" vertex="1" connectable="0" parent="yNYrjOHbYUAeNA91Fylv-22">
          <mxGeometry x="0.2275" y="-2" relative="1" as="geometry">
            <mxPoint y="-1" as="offset" />
          </mxGeometry>
        </mxCell>
        <mxCell id="yNYrjOHbYUAeNA91Fylv-24" style="edgeStyle=orthogonalEdgeStyle;rounded=0;orthogonalLoop=1;jettySize=auto;html=1;shape=link;strokeColor=#97D077;" edge="1" parent="1" source="yNYrjOHbYUAeNA91Fylv-11" target="yNYrjOHbYUAeNA91Fylv-8">
          <mxGeometry relative="1" as="geometry" />
        </mxCell>
        <mxCell id="yNYrjOHbYUAeNA91Fylv-25" value="4 Enrich IOCS" style="edgeLabel;html=1;align=center;verticalAlign=middle;resizable=0;points=[];" vertex="1" connectable="0" parent="yNYrjOHbYUAeNA91Fylv-24">
          <mxGeometry x="0.014" y="-1" relative="1" as="geometry">
            <mxPoint y="1" as="offset" />
          </mxGeometry>
        </mxCell>
        <mxCell id="yNYrjOHbYUAeNA91Fylv-27" style="rounded=0;orthogonalLoop=1;jettySize=auto;html=1;shape=link;strokeColor=#7EA6E0;" edge="1" parent="1" source="yNYrjOHbYUAeNA91Fylv-11" target="yNYrjOHbYUAeNA91Fylv-9">
          <mxGeometry relative="1" as="geometry" />
        </mxCell>
        <mxCell id="yNYrjOHbYUAeNA91Fylv-28" value="5 Send Alerts" style="edgeLabel;html=1;align=center;verticalAlign=middle;resizable=0;points=[];" vertex="1" connectable="0" parent="yNYrjOHbYUAeNA91Fylv-27">
          <mxGeometry x="0.1575" y="2" relative="1" as="geometry">
            <mxPoint as="offset" />
          </mxGeometry>
        </mxCell>
        <mxCell id="yNYrjOHbYUAeNA91Fylv-29" style="rounded=0;orthogonalLoop=1;jettySize=auto;html=1;entryX=1;entryY=0;entryDx=0;entryDy=0;shape=link;strokeColor=#FFB570;" edge="1" parent="1" source="yNYrjOHbYUAeNA91Fylv-11" target="yNYrjOHbYUAeNA91Fylv-8">
          <mxGeometry relative="1" as="geometry">
            <Array as="points">
              <mxPoint x="520" y="220" />
            </Array>
          </mxGeometry>
        </mxCell>
        <mxCell id="yNYrjOHbYUAeNA91Fylv-30" value="6 Send Email" style="edgeLabel;html=1;align=center;verticalAlign=middle;resizable=0;points=[];" vertex="1" connectable="0" parent="yNYrjOHbYUAeNA91Fylv-29">
          <mxGeometry x="0.5714" y="4" relative="1" as="geometry">
            <mxPoint as="offset" />
          </mxGeometry>
        </mxCell>
        <mxCell id="yNYrjOHbYUAeNA91Fylv-36" style="edgeStyle=orthogonalEdgeStyle;rounded=0;orthogonalLoop=1;jettySize=auto;html=1;shape=link;strokeColor=#FF3333;" edge="1" parent="1" source="yNYrjOHbYUAeNA91Fylv-11" target="yNYrjOHbYUAeNA91Fylv-10">
          <mxGeometry relative="1" as="geometry" />
        </mxCell>
        <mxCell id="yNYrjOHbYUAeNA91Fylv-37" value="8 Send Response Action" style="edgeLabel;html=1;align=center;verticalAlign=middle;resizable=0;points=[];" vertex="1" connectable="0" parent="yNYrjOHbYUAeNA91Fylv-36">
          <mxGeometry x="0.4142" y="1" relative="1" as="geometry">
            <mxPoint as="offset" />
          </mxGeometry>
        </mxCell>
        <mxCell id="yNYrjOHbYUAeNA91Fylv-11" value="Shuffle" style="image;aspect=fixed;perimeter=ellipsePerimeter;html=1;align=center;shadow=0;dashed=0;spacingTop=3;image=img/lib/active_directory/internet_cloud.svg;" vertex="1" parent="1">
          <mxGeometry x="400" y="40" width="50" height="31.5" as="geometry" />
        </mxCell>
        <mxCell id="yNYrjOHbYUAeNA91Fylv-33" style="rounded=0;orthogonalLoop=1;jettySize=auto;html=1;shape=link;strokeColor=#FF3333;" edge="1" parent="1" source="yNYrjOHbYUAeNA91Fylv-14" target="yNYrjOHbYUAeNA91Fylv-8">
          <mxGeometry relative="1" as="geometry">
            <Array as="points">
              <mxPoint x="510" y="390" />
            </Array>
          </mxGeometry>
        </mxCell>
        <mxCell id="yNYrjOHbYUAeNA91Fylv-34" value="8 Send Response Action" style="edgeLabel;html=1;align=center;verticalAlign=middle;resizable=0;points=[];" vertex="1" connectable="0" parent="yNYrjOHbYUAeNA91Fylv-33">
          <mxGeometry x="-0.0829" y="1" relative="1" as="geometry">
            <mxPoint y="1" as="offset" />
          </mxGeometry>
        </mxCell>
        <mxCell id="yNYrjOHbYUAeNA91Fylv-14" value="SOC Analyst" style="fontColor=#0066CC;verticalAlign=top;verticalLabelPosition=bottom;labelPosition=center;align=center;html=1;outlineConnect=0;fillColor=#CCCCCC;strokeColor=#6881B3;gradientColor=none;gradientDirection=north;strokeWidth=2;shape=mxgraph.networks.pc;" vertex="1" parent="1">
          <mxGeometry x="680" y="400" width="100" height="70" as="geometry" />
        </mxCell>
        <mxCell id="yNYrjOHbYUAeNA91Fylv-17" style="edgeStyle=orthogonalEdgeStyle;rounded=0;orthogonalLoop=1;jettySize=auto;html=1;entryX=0.5;entryY=1;entryDx=0;entryDy=0;entryPerimeter=0;startArrow=classic;startFill=1;shape=link;strokeColor=#B3B3B3;" edge="1" parent="1" source="yNYrjOHbYUAeNA91Fylv-1" target="yNYrjOHbYUAeNA91Fylv-2">
          <mxGeometry relative="1" as="geometry" />
        </mxCell>
        <mxCell id="yNYrjOHbYUAeNA91Fylv-18" value="1 Send Events" style="edgeLabel;html=1;align=center;verticalAlign=middle;resizable=0;points=[];" vertex="1" connectable="0" parent="yNYrjOHbYUAeNA91Fylv-17">
          <mxGeometry x="0.0667" y="-3" relative="1" as="geometry">
            <mxPoint as="offset" />
          </mxGeometry>
        </mxCell>
        <mxCell id="yNYrjOHbYUAeNA91Fylv-39" style="rounded=0;orthogonalLoop=1;jettySize=auto;html=1;entryX=0;entryY=0.5;entryDx=0;entryDy=0;entryPerimeter=0;shape=link;strokeColor=#FF3333;" edge="1" parent="1">
          <mxGeometry relative="1" as="geometry">
            <mxPoint x="205" y="260" as="sourcePoint" />
            <mxPoint x="375" y="625" as="targetPoint" />
            <Array as="points">
              <mxPoint x="330" y="240" />
              <mxPoint x="320" y="625" />
            </Array>
          </mxGeometry>
        </mxCell>
        <mxCell id="yNYrjOHbYUAeNA91Fylv-40" value="9 Perform Responsive Action" style="edgeLabel;html=1;align=center;verticalAlign=middle;resizable=0;points=[];" vertex="1" connectable="0" parent="yNYrjOHbYUAeNA91Fylv-39">
          <mxGeometry x="0.2655" y="6" relative="1" as="geometry">
            <mxPoint as="offset" />
          </mxGeometry>
        </mxCell>
        <mxCell id="yNYrjOHbYUAeNA91Fylv-10" value="Wazuh Manager" style="image;aspect=fixed;perimeter=ellipsePerimeter;html=1;align=center;shadow=0;dashed=0;spacingTop=3;image=img/lib/active_directory/internet_cloud.svg;" vertex="1" parent="1">
          <mxGeometry x="180" y="250" width="50" height="31.5" as="geometry" />
        </mxCell>
        <mxCell id="yNYrjOHbYUAeNA91Fylv-43" value="" style="edgeStyle=orthogonalEdgeStyle;rounded=0;orthogonalLoop=1;jettySize=auto;html=1;" edge="1" parent="1" source="yNYrjOHbYUAeNA91Fylv-41" target="yNYrjOHbYUAeNA91Fylv-42">
          <mxGeometry relative="1" as="geometry" />
        </mxCell>
        <mxCell id="yNYrjOHbYUAeNA91Fylv-41" value="Windows 10&lt;div&gt;Send Events&lt;/div&gt;" style="text;html=1;align=center;verticalAlign=middle;resizable=0;points=[];autosize=1;strokeColor=none;fillColor=none;" vertex="1" parent="1">
          <mxGeometry x="-120" y="820" width="90" height="40" as="geometry" />
        </mxCell>
        <mxCell id="yNYrjOHbYUAeNA91Fylv-45" value="" style="edgeStyle=orthogonalEdgeStyle;rounded=0;orthogonalLoop=1;jettySize=auto;html=1;" edge="1" parent="1" source="yNYrjOHbYUAeNA91Fylv-42" target="yNYrjOHbYUAeNA91Fylv-44">
          <mxGeometry relative="1" as="geometry" />
        </mxCell>
        <mxCell id="yNYrjOHbYUAeNA91Fylv-42" value="Wazuh Manager&lt;div&gt;Trigger alerts &amp;amp; Perform response actions&lt;/div&gt;" style="text;html=1;align=center;verticalAlign=middle;resizable=0;points=[];autosize=1;strokeColor=none;fillColor=none;" vertex="1" parent="1">
          <mxGeometry x="80" y="820" width="250" height="40" as="geometry" />
        </mxCell>
        <mxCell id="yNYrjOHbYUAeNA91Fylv-48" value="" style="edgeStyle=orthogonalEdgeStyle;rounded=0;orthogonalLoop=1;jettySize=auto;html=1;" edge="1" parent="1" source="yNYrjOHbYUAeNA91Fylv-44" target="yNYrjOHbYUAeNA91Fylv-47">
          <mxGeometry relative="1" as="geometry" />
        </mxCell>
        <mxCell id="yNYrjOHbYUAeNA91Fylv-50" value="" style="edgeStyle=orthogonalEdgeStyle;rounded=0;orthogonalLoop=1;jettySize=auto;html=1;" edge="1" parent="1" source="yNYrjOHbYUAeNA91Fylv-44" target="yNYrjOHbYUAeNA91Fylv-49">
          <mxGeometry relative="1" as="geometry" />
        </mxCell>
        <mxCell id="yNYrjOHbYUAeNA91Fylv-52" value="" style="edgeStyle=orthogonalEdgeStyle;rounded=0;orthogonalLoop=1;jettySize=auto;html=1;" edge="1" parent="1" source="yNYrjOHbYUAeNA91Fylv-44" target="yNYrjOHbYUAeNA91Fylv-51">
          <mxGeometry relative="1" as="geometry" />
        </mxCell>
        <mxCell id="yNYrjOHbYUAeNA91Fylv-44" value="Shuffle&lt;div&gt;Receive Wazuh Alerts &amp;amp; Send responsive actions&lt;/div&gt;" style="text;html=1;align=center;verticalAlign=middle;resizable=0;points=[];autosize=1;strokeColor=none;fillColor=none;" vertex="1" parent="1">
          <mxGeometry x="400" y="820" width="290" height="40" as="geometry" />
        </mxCell>
        <mxCell id="yNYrjOHbYUAeNA91Fylv-47" value="OSINT&lt;div&gt;Enrich IOCS&lt;/div&gt;" style="text;html=1;align=center;verticalAlign=middle;resizable=0;points=[];autosize=1;strokeColor=none;fillColor=none;" vertex="1" parent="1">
          <mxGeometry x="500" y="700" width="90" height="40" as="geometry" />
        </mxCell>
        <mxCell id="yNYrjOHbYUAeNA91Fylv-49" value="TheHive&lt;div&gt;Create alert in case management&lt;/div&gt;" style="text;html=1;align=center;verticalAlign=middle;resizable=0;points=[];autosize=1;strokeColor=none;fillColor=none;" vertex="1" parent="1">
          <mxGeometry x="445" y="940" width="200" height="40" as="geometry" />
        </mxCell>
        <mxCell id="yNYrjOHbYUAeNA91Fylv-51" value="Email&lt;div&gt;Send email &amp;amp; responsive actions&lt;/div&gt;" style="text;html=1;align=center;verticalAlign=middle;resizable=0;points=[];autosize=1;strokeColor=none;fillColor=none;" vertex="1" parent="1">
          <mxGeometry x="815" y="820" width="200" height="40" as="geometry" />
        </mxCell>
      </root>
    </mxGraphModel>
  </diagram>
</mxfile>
